HIERARCHY
ROOT root
{
	OFFSET	0	13.1	24.9
	CHANNELS 6  Xposition Yposition Zposition Xrotation Yrotation Zrotation
	JOINT spine_1
	{
		OFFSET	0	9.99999	0
		CHANNELS 3  Xrotation Yrotation Zrotation
		JOINT spine_2
		{
			OFFSET	0	112	-10
			CHANNELS 3  Xrotation Yrotation Zrotation
			JOINT spine_3
			{
				OFFSET	0	206.5	19.3
				CHANNELS 3  Xrotation Yrotation Zrotation
				JOINT spine_4
				{
					OFFSET	0	110.4	14.6
					CHANNELS 3  Xrotation Yrotation Zrotation
					JOINT neck_1
					{
						OFFSET	0	71.8	-50.3
						CHANNELS 3  Xrotation Yrotation Zrotation
						JOINT neck_2
						{
							OFFSET	0	86.2	-25.8
							CHANNELS 3  Xrotation Yrotation Zrotation
							JOINT head_ee
							{
								OFFSET	0	179.8	-8.7
								CHANNELS 3  Xrotation Yrotation Zrotation
								End Site
								{
									OFFSET	1	0	0
								}
							}
						}
					}
					JOINT left_clavicle
					{
						OFFSET	-43.2	22.4	-70.8
						CHANNELS 3  Xrotation Yrotation Zrotation
						JOINT left_shoulder
						{
							OFFSET	-93.9	-5.79999	48.7
							CHANNELS 3  Xrotation Yrotation Zrotation
							JOINT left_elbow
							{
								OFFSET	-291.4	-30.8	15.2
								CHANNELS 3  Xrotation Yrotation Zrotation
								JOINT left_lowarm_twist
								{
									OFFSET	-110.7	-3.89999	13.6
									CHANNELS 3  Xrotation Yrotation Zrotation
									JOINT left_hand
									{
										OFFSET	-110.7	-3.89999	13.6
										CHANNELS 3  Xrotation Yrotation Zrotation
										JOINT left_ee
										{
											OFFSET	-80.8	-5.10001	12.1
											CHANNELS 3  Xrotation Yrotation Zrotation
											End Site
											{
												OFFSET	1	0	0
											}
										}
									}
								}
							}
						}
					}
					JOINT right_clavicle
					{
						OFFSET	43.2	22.4	-70.8
						CHANNELS 3  Xrotation Yrotation Zrotation
						JOINT right_shoulder
						{
							OFFSET	93.9	-5.79999	48.7
							CHANNELS 3  Xrotation Yrotation Zrotation
							JOINT right_elbow
							{
								OFFSET	291.4	-30.8	15.2
								CHANNELS 3  Xrotation Yrotation Zrotation
								JOINT right_lowarm_twist
								{
									OFFSET	110.7	-3.89999	13.6
									CHANNELS 3  Xrotation Yrotation Zrotation
									JOINT right_hand
									{
										OFFSET	110.7	-3.89999	13.6
										CHANNELS 3  Xrotation Yrotation Zrotation
										JOINT right_ee
										{
											OFFSET	80.8	-5.10001	12.1
											CHANNELS 3  Xrotation Yrotation Zrotation
											End Site
											{
												OFFSET	1	0	0
											}
										}
									}
								}
							}
						}
					}
				}
			}
		}
	}
	JOINT left_hip
	{
		OFFSET	-82.8	-127.5	0.300001
		CHANNELS 3  Xrotation Yrotation Zrotation
		JOINT left_knee
		{
			OFFSET	-28.2	-396.7	2.2
			CHANNELS 3  Xrotation Yrotation Zrotation
			JOINT left_ankle
			{
				OFFSET	-11.7	-411.3	35.4
				CHANNELS 3  Xrotation Yrotation Zrotation
				JOINT left_toes
				{
					OFFSET	0	-60	-88.6
					CHANNELS 3  Xrotation Yrotation Zrotation
					JOINT left_foot_ee
					{
						OFFSET	-22.5	-16.5	-42.2
						CHANNELS 3  Xrotation Yrotation Zrotation
						End Site
						{
							OFFSET	1	0	0
						}
					}
				}
			}
		}
	}
	JOINT right_hip
	{
		OFFSET	82.8	-127.5	0.300001
		CHANNELS 3  Xrotation Yrotation Zrotation
		JOINT right_knee
		{
			OFFSET	28.2	-396.7	2.2
			CHANNELS 3  Xrotation Yrotation Zrotation
			JOINT right_ankle
			{
				OFFSET	11.7	-411.3	35.4
				CHANNELS 3  Xrotation Yrotation Zrotation
				JOINT right_toes
				{
					OFFSET	0	-60	-88.6
					CHANNELS 3  Xrotation Yrotation Zrotation
					JOINT right_foot_ee
					{
						OFFSET	22.5	-16.5	-42.2
						CHANNELS 3  Xrotation Yrotation Zrotation
						End Site
						{
							OFFSET	1	0	0
						}
					}
				}
			}
		}
	}
}
MOTION
Frames: 5
Frame Time: 0.02
1130.13107635 712.385 -1654.2775541 -9.57913253618 45.5337800824 13.715661884 4.64873 -0.349815 -2.08988 4.65113 -0.216151 -2.10789 4.65725 0.0599026 -2.1181 4.65109 -0.275288 -2.10099 -13.1819 11.3398 -4.57192 -13.5419 24.4163 -0.834165 -0.0 0.0 -0.0 -0.0748515 23.3837 2.60322 -28.934 -25.3545 71.9829 0.947225 -25.1369 0.211186 -17.8874 -0.961209 2.06615 0.34504 28.3441 13.0337 -0.0 0.0 -0.0 6.54283 -1.27618 -12.6934 -18.3146 55.9318 -56.496 1.08423 28.2393 -0.272743 9.5263 -0.236979 1.19242 0.854098 -2.60759 -6.77094 0.0 0.0 0.0 28.793 -12.7139 -4.99046 -63.3497 -2.57235 8.88383 30.7975 -18.4694 -4.36376 16.4831 -0.0 -0.0 -0.0 0.0 -0.0 24.8037 26.7182 -16.6902 -12.693 -0.311128 -1.9191 29.8386 -7.76805 3.87231 8.16098 -0.0 -0.0 0.0 0.0 0.0 
1087.84036405 714.471 -1673.88930144 -9.52569172785 50.2272695975 14.8828701872 4.98097 -0.287828 -1.97573 4.98312 -0.16155 -1.99003 4.98689 0.0872564 -1.99467 4.98141 -0.228796 -1.98343 -14.432 10.8811 -5.42592 -14.8413 24.0308 -1.51811 -0.0 0.0 -0.0 -1.24835 23.9623 1.07971 -30.7116 -25.1052 71.1051 0.912498 -24.3238 0.196658 -16.4889 -0.863199 1.9163 0.624085 28.2085 14.5569 -0.0 0.0 -0.0 7.10869 -1.23929 -13.802 -17.808 55.1868 -55.4361 1.08924 28.3495 -0.275117 10.3308 -0.247853 1.2946 0.693926 -1.42001 -5.22049 0.0 0.0 0.0 33.7853 -13.5205 -7.53227 -64.127 -2.66172 8.96387 28.9532 -20.3788 -4.2201 16.3106 -0.0 -0.0 -0.0 0.0 -0.0 21.0592 27.4956 -17.5459 -11.9199 -0.304408 -1.80068 33.6158 -5.98728 4.26211 8.47502 -0.0 -0.0 0.0 0.0 0.0 
1074.41070534 716.689 -1684.2199387 -11.1516412565 51.1589244806 17.0763147082 5.12931 -0.0237711 -1.8056 5.13112 0.0911532 -1.80346 5.12667 0.310561 -1.77886 5.12225 0.0257736 -1.80557 -13.8701 10.0572 -4.95082 -14.1824 22.1943 -1.47742 -0.0 0.0 -0.0 -0.278203 23.4833 2.33632 -32.9071 -26.7624 67.2077 0.782625 -21.1907 0.146401 -15.2049 -0.776469 1.77668 1.39771 29.0626 19.2087 -0.0 0.0 -0.0 7.51241 -0.53195 -14.6061 -17.134 55.2738 -55.414 1.06703 27.8591 -0.264655 9.8552 -0.241598 1.23418 0.899413 -0.988285 -6.42021 0.0 0.0 0.0 38.1129 -12.6868 -9.24706 -65.6059 -2.83475 9.11281 27.5813 -17.1125 -3.95005 15.6164 -0.0 -0.0 -0.0 0.0 -0.0 17.5566 21.6928 -18.0362 -7.05462 -0.225522 -1.05851 36.01 -14.0909 4.54665 8.75978 -0.0 -0.0 0.0 0.0 0.0 
1053.83106443 715.757 -1691.47140172 -10.9325656533 53.6966937777 17.0281799433 5.25005 -0.244813 -1.73605 5.25172 -0.133865 -1.7481 5.25425 0.0764592 -1.75155 5.25003 -0.201082 -1.74165 -12.2945 9.45371 -4.37385 -12.4882 20.7241 -1.43688 -0.0 0.0 -0.0 -0.864428 23.5571 1.54482 -35.1559 -23.9486 66.5946 0.834538 -22.4603 0.165702 -14.021 -0.699304 1.64627 1.34573 27.5033 18.4945 -0.0 0.0 -0.0 7.81792 -1.23424 -15.2015 -17.7205 55.2238 -54.8987 1.06457 27.8045 -0.263507 10.4001 -0.248723 1.30342 0.668492 1.84309 -3.70739 0.0 0.0 0.0 37.7497 -11.732 -9.93912 -64.0436 -2.65208 8.95534 30.5701 -16.1469 -4.2634 16.204 -0.0 -0.0 -0.0 0.0 -0.0 16.0104 18.5442 -17.5726 -8.92067 -0.263229 -1.34236 36.9335 -13.2693 4.6262 11.8266 -0.0 -0.0 0.0 0.0 0.0 
1042.20821611 714.978 -1697.92963743 -11.5820193258 53.1687125584 17.7827266912 5.24462 0.108069 -1.782 5.24636 0.221225 -1.77151 5.23796 0.432453 -1.73212 5.2338 0.153516 -1.77866 -12.5351 9.64957 -4.90344 -12.7456 21.4261 -1.83793 -0.0 0.0 -0.0 0.280351 24.282 3.18022 -37.3958 -23.8412 64.0433 0.745549 -20.2703 0.133276 -14.8543 -0.753335 1.73822 1.14327 27.444 17.2992 -0.0 0.0 -0.0 8.13686 0.140606 -15.8642 -17.9982 55.5346 -53.1709 1.05053 27.4918 -0.256989 10.551 -0.25058 1.3226 0.584642 2.74834 -2.76668 0.0 0.0 0.0 38.4164 -9.75169 -12.5014 -63.2922 -2.56578 8.87787 30.089 -18.453 -4.28336 16.3132 -0.0 -0.0 -0.0 0.0 -0.0 15.5722 20.4458 -18.0468 -8.01836 -0.246151 -1.20496 37.356 -15.2872 4.69215 11.7782 -0.0 -0.0 0.0 0.0 0.0 
